<?xml version="1.0" encoding="UTF-8"?>
<svg id="Layer_2" data-name="Layer 2" xmlns="http://www.w3.org/2000/svg" viewBox="0 0 200 82.9">
  <defs>
    <style>
      .cls-1 {
        fill: #fe3333;
      }

      .cls-2 {
        fill: #030303;
      }
    </style>
  </defs>
  <g id="Layer_1-2" data-name="Layer 1">
    <g>
      <g>
        <g>
          <path class="cls-1" d="M151.5,35.45c-.16.8-1.36.76-1.41-.09v-13.8c0-.64.45-.79,1.01-.83,2.66-.23,6.41-.08,9.15,0,3.98.12,7.22.5,9.51,4.11,3.39,5.33,3.16,15.01-1.52,19.54-.13.12-.32.14-.32.3l4.98,15.16c.08.57-.16.84-.71.88-2.49.22-5.3-.18-7.83,0l-.48-.22-3.78-13.93h-1.41v13.66c0,.29-.49.46-.74.49-2.29.21-4.89-.16-7.21,0-.48-.02-.66-.4-.66-.83v-18.46c.12-1.62.81-2.78,2.52-3.02,2.59-.36,5.51.16,8.07-.1.97-.1,1.53-.7,1.84-1.58.61-1.68.71-6.31-.57-7.69-.25-.27-1.11-.75-1.45-.75h-1.8v6.28s-.24.36-.3.4c-.37.23-.88,0-1.01-.4l.04-7.33c.16-.19.26-.32.52-.36.87-.12,2.78-.03,3.61.26,2.8,1.01,2.92,4.94,2.76,7.43-.47,7.45-6.08,4.59-11.28,5.15-.54.06-1.16.28-1.39.81-.03.07-.16.43-.16.46v18.32h5.89v-13.84c0-.15.5-.36.67-.39.33-.05,2.56-.05,2.76.04.07.03.35.33.39.4l3.74,13.79h6.33l-4.92-14.9c0-.57.48-.66.79-.96,5.64-5.35,4.99-21.02-4.87-21.22h-10.77v13.23Z"/>
          <path class="cls-1" d="M100.63,35.54c-.13.58-1,.67-1.27.13v-14.5c.08-.27.35-.36.61-.35,8.52.63,17.68-2.92,20.58,7.81,1.23,4.54.8,12.35-3.01,15.66-.17.15-.47.21-.48.39l4.97,15.61c-.14.34-.36.41-.7.44-2.46.22-5.25-.18-7.74,0-.6-.07-.65-.46-.81-.95l-3.45-13.2h-1.49v13.75c0,.17-.39.41-.57.4-2.32-.17-4.93.21-7.21,0-.33-.03-.56-.11-.72-.42l-.02-19.22c.21-2.26,1.76-2.67,3.73-2.77,2.17-.11,4.77.24,6.86,0,1.1-.13,1.65-.98,1.91-1.95.47-1.7.57-5.79-.6-7.19-.3-.36-1.12-.88-1.58-.88h-1.8v6.37c0,.45-1.18.68-1.31-.27-.29-2.05.21-4.73,0-6.85.06-.48.3-.62.74-.66,3.33-.3,5.51.49,6.09,4.03.43,2.69.47,7.87-2.87,8.68-2.3.56-5.83-.15-8.3.14-.56.07-1.12.29-1.36.83-.04.09-.18.55-.18.61v18.14h5.89v-13.66c0-.31.46-.54.74-.57.51-.06,2.05-.07,2.54,0,.23.04.4.16.51.37l3.76,13.86h6.33l-.04-.36-4.8-14.54c-.02-.62.71-.89,1.11-1.27,5.27-5.01,4.4-21.02-5.18-20.92h-10.86v13.32Z"/>
          <path class="cls-1" d="M36.75,44.72l-2.11-11.77c-.18-.23-.29.62-.31.7-.54,2.53-.82,5.12-1.4,7.65-.22.58-1.25.44-1.36-.14.57-3.47,1.2-6.96,1.87-10.43.09-.46.34-2.21.54-2.45.34-.44,1.13-.31,1.26.25.82,5.39,2.18,10.79,2.98,16.17.07.45.3,1.06-.19,1.34-.41.23-3.14.03-3.87.08-1.48.1-2.09.45-2.47,1.92-.94,3.59-1.3,7.76-2.07,11.46-.11.51-.08,1.16-.72,1.22-2.35-.17-4.99.21-7.3,0-.97-.09-.91-.6-.7-1.41l9.15-38.13c.22-.36.56-.42.96-.45,2.3-.2,4.88.15,7.21,0,.53.05.78.24.9.77l9.22,38.39c-.03.57-.13.76-.72.82-2.24.25-4.92-.19-7.21,0l-.48-.14-1.68-8.11c-.14-.09-2.54.04-3.01-.02-1.13-.14-1.12-1.29-.17-1.46.64-.12,3.07-.1,3.76-.02.37.04.62.25.7.61l1.36,7.73h5.8l-8.79-37.08h-6.62s-8.93,37.08-8.93,37.08h5.89c.73-3.6,1.17-7.33,1.96-10.91.33-1.5.71-2.86,2.33-3.39.26-.08,1.07-.29,1.29-.29h2.94Z"/>
          <path class="cls-1" d="M186.81,20.24c12.85-1,13.53,14.25,13.11,23.48-.27,5.9-1.78,17.81-9.8,17.62-6.46-.15-6.18-7.34-6.28-12-.09-4.42-.09-8.93.09-13.35.13-3.12.08-9.54,4.83-8.79,3.16.5,3.15,6.12,3.25,8.53.14,3.3.11,6.63,0,9.93-.08,2.25.07,6.13-1.4,7.91-.35.42-1.18,1.21-1.71.66-.74-.79.33-1.19.7-1.66,1.2-1.52,1.06-8.27,1.09-10.42.05-2.82.34-10.52-1.12-12.75-.65-1-2.17-1.08-2.95-.2-1.28,1.45-1.21,5.26-1.28,7.16-.17,4.67-.25,9.38-.09,14.05.15,4.26.02,9.99,5.93,9.45s7.15-11.66,7.34-16.03c.31-7.31,0-22.11-10.23-22.19-6.57-.05-9.22,4.67-10.29,10.46-1.18,6.4-1.06,17.58,1.96,23.43.24.46,1.11,1.57,1.21,1.87.19.62-.17,1.24-.84,1.02-.59-.19-1.75-2.52-2.03-3.15-1.96-4.39-2.33-10.08-2.32-14.85.02-7.57,1.16-19.4,10.84-20.15Z"/>
          <path class="cls-1" d="M84.9,28.91v7.56h7.95c.32,0,.77.39.75.74-.18,2.03.23,4.44,0,6.42-.07.56-.5.7-1.01.75-4.03.36-8.57-.28-12.65,0-1.13.15-2.51,1.52-2.51,2.67v12.26h17.49v-5.36h-10.94c-.23,0-.46-.43-.49-.66-.18-1.57.14-3.49,0-5.09.06-.48.63-.72,1.05-.53.08.04.35.38.35.44v4.44h10.85c.29,0,.46.59.49.83.2,2.11-.16,4.54,0,6.68,0,.28-.18.52-.44.62l-18.94.04c-.29.01-.54-.12-.68-.38-.14-4.52-.06-9.08-.04-13.62.06-1.62,2.11-3.76,3.71-3.76h12.3s.13-.12.13-.13v-4.88h-8.04c-.2,0-.6-.25-.68-.46-.16-3.06-.02-6.17-.07-9.25-.05-.22.32-.66.49-.66h10.81s.13-.12.13-.13v-5.23h-17.49v18.67s-.3.3-.37.33c-.47.2-.91-.1-.95-.59v-19.07c-.02-.29.13-.53.35-.7l19.35-.03c.24.13.41.37.42.64-.15,2.15.19,4.56,0,6.68-.02.25-.2.74-.49.74h-10.85Z"/>
          <path class="cls-1" d="M69.32,23.67c1.26,1.28,2.36,3.32,2.93,5.02.25.75.65,1.45-.16,1.96-1.15.72-3.39,1.65-4.71,2.23-.48.21-1,.59-1.46.29-.41-.26-.61-1.65-.87-2.21-2.2-4.73-7.49-.11-4.41,3.18.37.39,1.27.8.87,1.48-.56.95-1.94-.52-2.31-1.01-2.36-3.11.18-7.94,4.15-6.96,1.78.44,2.92,2.21,3.35,3.9l4.29-1.94c.15-.24-.99-2.58-1.2-2.95-5.26-9.02-19.77-3.24-16.6,7.11,2.58,8.4,15.84,3.24,19.2,12.35,2.16,5.86-.85,12.76-7.11,14.2-7.66,1.76-13.44-1.87-14.9-9.59-.22-1.16.28-1.15,1.21-1.56,1.67-.72,3.43-1.27,5.09-2.02.38-.14.76.03.95.37.47,1.99.93,4.61,3.35,4.99,3.47.55,4.56-4.09,2.11-6.06-.56-.45-1.75-.71-1.56-1.57.27-1.22,2.55.53,2.96.96,2.54,2.63,1.3,7.76-2.59,8.11-3.19.29-4.93-2.36-5.39-5.17l-4.37,1.74c-.12.04-.19.1-.2.24-.03.25.59,1.99.73,2.35,1.86,4.78,5.2,6.58,10.3,6.22,5.85-.42,9.47-5.25,8.54-11-1.78-11.01-18.61-3.55-20.09-16.02-1.17-9.78,11.3-15.33,17.89-8.62Z"/>
          <path class="cls-1" d="M133.75,46.57v13.58c0,.37-.42.55-.74.58-2.29.2-4.89-.16-7.21,0-.26,0-.47-.15-.59-.38-.16-6.29-.02-12.61-.07-18.92.11-.97.33-2.01,1.22-2.56,1.74-1.08,7.09-.33,9.37-.56,1.55-.16,1.97-1.63,2.14-2.95.21-1.57.27-5.03-.83-6.27-.26-.29-1.13-.8-1.49-.8h-1.8v6.19c0,.1-.24.47-.35.53-.58.26-1.01-.25-1.04-.8.12-2.07-.19-4.37-.01-6.41.05-.56.14-.87.75-.92,2.95-.27,5.17.21,5.98,3.34.6,2.34.64,7.76-1.86,9.04-1.83.94-6.67.27-8.96.45-.82.07-1.45.29-1.67,1.14-.02.08-.13.62-.13.66v17.79h5.89v-13.58c0-.33.45-.61.75-.65,1.2-.17,2.77.07,4.03,0,4.02-.25,6.37-1.97,7.69-5.75,2.11-6.06.82-16.92-7.42-17.09h-10.94v13.4c0,.21-1.2.75-1.32-.35v-13.71c-.02-.29.13-.53.36-.7l11.91-.05c10.69-.14,12.01,16.87,6.5,22.94-2.52,2.77-6.67,2.81-10.15,2.81Z"/>
          <path class="cls-1" d="M7.31,22.23H1.34v27.81c0,.07.1.64.13.75.19.79.69,1.29,1.51,1.39h13.88c.62,0,.86.36.92.93.24,2.1-.18,4.62,0,6.77-.02.33-.16.61-.46.77-5.52.16-11.09.02-16.63.07-.52,0-.82-.6-.61-1.06.04-.08.38-.35.44-.35h15.86v-5.58s-.12-.13-.13-.13H2.96c-1.74,0-2.89-1.7-2.94-3.3v-28.82c0-.5.2-.62.65-.66,2.34-.21,5.01.17,7.39,0,.38,0,.53.27.64.59l-.03,27.17c-.3.57-1.36.39-1.36-.22v-26.14Z"/>
        </g>
        <g>
          <path class="cls-2" d="M70.14,0c1,.29,1.12,1.02.92,1.94-.25,1.22-.87,2.52-1.18,3.74l-1.06.04c-.12-.12.85-3.08.69-3.33-.02-.03-.24-.07-.33-.15-.82-.67-.48-1.85.44-2.24h.53Z"/>
          <path class="cls-2" d="M8.76,1.14c2.79.25,4.97,2.13,4.31,5.1-.33,1.48-1,1.79-2.13,2.52-.07.04-.25.06-.11.2.03.03.66.16.85.25,1.81.84,2.49,2.31,2.32,4.28-.23,2.68-2.92,3.6-5.23,3.73-2.68.16-5.52-.13-8.22,0V1.14h8.22ZM2.22,8.35h6.19c.23,0,1.14-.27,1.39-.37,2.34-.98,2.29-4.21-.11-5.12-1.3-.49-5.72-.57-7.16-.4-.09.01-.3.04-.3.14v5.76ZM8.85,9.75c-2.14-.17-4.48.12-6.63,0v6.06h6.72c1.33,0,3.09-.87,3.34-2.28.44-2.44-1.21-3.61-3.43-3.78Z"/>
          <path class="cls-2" d="M30.77,17.22h-1.8l-3.74-5.14-5.62.04v5.1h-1.67V1.14h7.25c.71,0,2.34.6,2.97.98,3.1,1.89,3.22,6.88.19,8.86-.43.28-.91.4-1.3.63-.08.05-.18.07-.15.2l3.86,5.41ZM19.61,10.63h5.49c.11,0,.94-.23,1.12-.29,2.31-.76,3.17-3.13,2.33-5.36-1.22-3.24-6.25-2.28-8.94-2.44v8.08Z"/>
          <path class="cls-2" d="M48.35,17.22h-1.76l-1.97-4.31-8.87.02-2.03,4.29h-1.71L39.42,1.14c.4.08,1.47-.16,1.71.15l7.21,15.94ZM44.04,11.6c.02-.1-.01-.18-.04-.27-.83-2.61-2.67-5.38-3.57-8.03l-.3-.32-3.82,8.61h7.73Z"/>
          <path class="cls-2" d="M74.01,14.06c.17-.12.45.24.58.33,2,1.34,4.51,1.93,6.88,1.29,2.21-.6,3.34-3.21,1.17-4.6-2.75-1.76-9.34-1.12-8.81-6.11.46-4.26,6.19-4.59,9.35-3.39.24.09,1.35.6,1.46.75.14.18-.36,1.33-.5,1.36-1.04-.59-2.15-1.04-3.34-1.21-1.81-.26-4.54.05-5.17,2.1-.73,2.4,1.5,3.12,3.29,3.64,2.8.82,6.8,1.16,6.51,5.1-.36,4.95-8.29,4.75-11.33,2.54-.13-.1-.62-.5-.62-.6.1-.16.48-1.15.53-1.19Z"/>
          <path class="cls-2" d="M51.07,17.22V1.14c2.48.13,5.14-.18,7.6,0,6.2.46,9.75,7.09,6.41,12.38-3.07,4.86-9.12,3.5-14.01,3.7ZM52.74,2.68v13c0,.1.21.13.3.14,1.35.16,4.24.07,5.63-.09,7.61-.89,8.01-11.38.84-12.96-1.41-.31-5.01-.39-6.47-.22-.1.01-.27.02-.3.14Z"/>
        </g>
      </g>
      <g>
        <path class="cls-2" d="M157.92,82.77v-16.17c2.24.09,4.57-.12,6.81,0,1.93.1,3.63.52,5.22,1.63,4.28,3.02,4.26,10.03-.09,12.99-3.45,2.35-8,1.31-11.94,1.55ZM159.59,81.28h5.93c.29,0,1.11-.23,1.43-.33,6.27-1.89,6.02-11.22-.67-12.65-1.41-.3-4.95-.38-6.39-.21-.09.01-.3.04-.3.14v13.05Z"/>
        <path class="cls-2" d="M141.22,66.6c.12,3.06-.16,6.23,0,9.27.18,3.65,1.74,5.81,5.67,5.49,2.41-.2,4.26-2.17,4.26-4.61v-10.15h1.67c-.13,3.17.17,6.47,0,9.62-.25,4.53-2.74,6.92-7.34,6.63-3.21-.2-5.35-2.17-5.82-5.34-.25-3.62-.05-7.28-.11-10.92h1.67Z"/>
        <path class="cls-2" d="M122.05,67.85c.06.11-.48,1.39-.56,1.39-1.82-1.18-4.24-1.65-6.35-1.08-2.32.63-3.32,3.43-1.05,4.79,2.61,1.56,8.32,1.02,8.67,5.12.47,5.62-8.31,5.82-11.46,3.2-.11-.09-.48-.42-.47-.55,0-.08.58-1.2.65-1.2,1.75,1.65,4.56,2.26,6.9,1.8,2.96-.57,3.93-3.8.87-5.1-2.95-1.26-8.4-1.05-8.09-5.63.34-4.86,7.8-4.85,10.89-2.75Z"/>
        <polygon class="cls-2" points="137 68.1 131.29 68.1 131.29 82.77 129.62 82.77 129.62 68.1 123.91 68.1 123.91 66.73 137 66.73 137 68.1"/>
        <rect class="cls-2" x="176.98" y="66.6" width="1.67" height="16.17"/>
        <path class="cls-2" d="M189.88,66.54c5.82-.56,10.43,3.84,9.4,9.75-1.38,7.87-12.95,8.96-16.07,1.88-2.3-5.21.98-11.08,6.67-11.63ZM197.72,74.69c0-3.74-3.04-6.78-6.78-6.78s-6.78,3.04-6.78,6.78,3.04,6.78,6.78,6.78,6.78-3.04,6.78-6.78Z"/>
      </g>
    </g>
  </g>
</svg>